<?xml version="1.0" standalone="no"?>
<!DOCTYPE svg PUBLIC "-//W3C//DTD SVG 20010904//EN"
 "http://www.w3.org/TR/2001/REC-SVG-20010904/DTD/svg10.dtd">
<svg version="1.0" xmlns="http://www.w3.org/2000/svg"
 width="200.000000pt" height="200.000000pt" viewBox="0 0 200.000000 200.000000"
 preserveAspectRatio="xMidYMid meet">

<g transform="translate(0.000000,200.000000) scale(0.100000,-0.100000)"
fill="#000000" stroke="none">
<path d="M535 1678 c-11 -6 -23 -16 -27 -22 -10 -14 -10 -1048 0 -1062 21 -32
51 -34 617 -34 566 0 596 2 617 34 4 6 8 190 8 408 0 396 0 397 -22 418 -21
19 -34 20 -317 20 l-296 0 -65 115 c-39 69 -74 118 -88 124 -32 15 -401 14
-427 -1z"/>
<path d="M285 1428 c-11 -6 -23 -16 -27 -22 -10 -14 -10 -1048 0 -1062 21 -32
51 -34 616 -34 411 0 572 3 591 12 46 21 46 85 -1 106 -18 9 -176 12 -554 12
l-529 0 -3 481 -3 481 -24 19 c-27 22 -38 23 -66 7z"/>
</g>
</svg>
